<svg width="29" height="30" viewBox="0 0 29 30" fill="none" xmlns="http://www.w3.org/2000/svg">
<path d="M22.6808 21.2164C23.4109 23.1212 23.1728 24.899 21.9665 26.5498C20.7601 28.2006 19.0617 29.0259 16.8713 29.0259C15.8236 29.0259 14.8319 28.7561 13.896 28.2164C12.9589 27.6767 12.2681 26.9625 11.8236 26.0736C9.18871 26.4545 7.00649 25.7796 5.27697 24.0488C3.54618 22.3193 2.83951 20.1053 3.15697 17.4069C2.20459 16.8672 1.47443 16.1294 0.966494 15.1936C0.458558 14.2564 0.20459 13.1847 0.20459 11.9783C0.20459 10.0418 1.08586 8.47802 2.8484 7.28691C4.60967 6.09707 6.33157 5.85135 8.01411 6.54976L10.9665 7.78786C11.6014 6.80373 12.4427 6.00183 13.4903 5.38215C14.5379 4.76373 15.6649 4.42278 16.8713 4.35929V0.454529H19.7284V4.74024C20.903 5.08945 21.8712 5.63675 22.6332 6.38215C23.3951 7.12881 24.0458 8.16881 24.5855 9.50214H28.776V12.3593H24.8712C24.8078 13.5656 24.4827 14.6926 23.896 15.7402C23.3081 16.7879 22.522 17.6291 21.5379 18.264L22.6808 21.2164ZM10.8713 22.3593C10.8713 21.5021 10.943 20.6691 11.0865 19.8602C11.2287 19.0501 11.4427 18.264 11.7284 17.5021C10.9982 17.8513 10.2122 18.0971 9.3703 18.2393C8.52966 18.3828 7.69665 18.4228 6.87125 18.3593C6.87125 19.5974 7.22808 20.5739 7.94173 21.2888C8.65665 22.0025 9.63316 22.3593 10.8713 22.3593ZM7.34744 14.5498C8.36332 14.5498 9.26046 14.4228 10.0389 14.1688C10.816 13.9148 11.8236 13.4069 13.0617 12.645L7.34744 10.264C6.42681 9.8831 5.64141 9.89071 4.99125 10.2869C4.33983 10.6844 4.01411 11.3117 4.01411 12.1688C4.01411 12.9942 4.28395 13.5974 4.82364 13.9783C5.36332 14.3593 6.20459 14.5498 7.34744 14.5498ZM16.8713 25.2164C17.6649 25.2164 18.3074 24.9383 18.7989 24.3821C19.2916 23.8272 19.4109 23.2482 19.157 22.645L16.5855 16.1688C15.9824 17.1847 15.5144 18.2006 15.1817 19.2164C14.8478 20.2323 14.6808 21.1529 14.6808 21.9783C14.6808 23.0259 14.8636 23.8272 15.2293 24.3821C15.5938 24.9383 16.1411 25.2164 16.8713 25.2164ZM20.0141 14.645C20.3316 14.3275 20.5855 13.9066 20.776 13.3821C20.9665 12.859 21.0617 12.3117 21.0617 11.7402C21.0617 10.7244 20.7284 9.86722 20.0617 9.16881C19.3951 8.4704 18.5697 8.12119 17.5855 8.12119C17.0141 8.12119 16.4744 8.21643 15.9665 8.40691C15.4586 8.59738 15.03 8.86722 14.6808 9.21643L18.3951 10.9307L20.0141 14.645Z" fill="#BFB2FF"/>
</svg>
